<mxfile host="app.diagrams.net" modified="2023-03-03T17:54:01.060Z" agent="5.0 (Macintosh; Intel Mac OS X 10_15_7) AppleWebKit/537.36 (KHTML, like Gecko) Chrome/110.0.0.0 Safari/537.36" etag="QhWiBEMQiBAiRhxzD9QL" version="21.0.2" type="github">
  <diagram name="Page-1" id="ns24Oc6kR1nZEKpFbcki">
    <mxGraphModel dx="913" dy="594" grid="1" gridSize="10" guides="1" tooltips="1" connect="1" arrows="1" fold="1" page="1" pageScale="1" pageWidth="850" pageHeight="1100" background="#ffffff" math="0" shadow="0">
      <root>
        <mxCell id="0" />
        <mxCell id="1" parent="0" />
        <mxCell id="17vENU-IUlTyO67-pzKh-63" value="" style="shape=internalStorage;whiteSpace=wrap;html=1;backgroundOutline=1;dx=40;dy=40;strokeColor=#ffffff;fillColor=#000000;" vertex="1" parent="1">
          <mxGeometry x="280" y="520" width="80" height="80" as="geometry" />
        </mxCell>
        <mxCell id="17vENU-IUlTyO67-pzKh-64" value="" style="shape=internalStorage;whiteSpace=wrap;html=1;backgroundOutline=1;dx=40;dy=40;strokeColor=#FFFFFF;fillColor=#000000;" vertex="1" parent="1">
          <mxGeometry x="360" y="520" width="80" height="80" as="geometry" />
        </mxCell>
        <mxCell id="17vENU-IUlTyO67-pzKh-65" value="" style="shape=internalStorage;whiteSpace=wrap;html=1;backgroundOutline=1;dx=40;dy=40;strokeColor=#FFFFFF;fillColor=#000000;" vertex="1" parent="1">
          <mxGeometry x="440" y="520" width="80" height="80" as="geometry" />
        </mxCell>
        <mxCell id="17vENU-IUlTyO67-pzKh-66" value="" style="shape=internalStorage;whiteSpace=wrap;html=1;backgroundOutline=1;dx=40;dy=40;strokeColor=#FFFFFF;fillColor=#000000;" vertex="1" parent="1">
          <mxGeometry x="520" y="520" width="80" height="80" as="geometry" />
        </mxCell>
        <mxCell id="17vENU-IUlTyO67-pzKh-67" value="" style="shape=internalStorage;whiteSpace=wrap;html=1;backgroundOutline=1;dx=40;dy=40;strokeColor=#FFFFFF;fillColor=#000000;" vertex="1" parent="1">
          <mxGeometry x="440" y="600" width="80" height="80" as="geometry" />
        </mxCell>
        <mxCell id="17vENU-IUlTyO67-pzKh-68" value="" style="shape=internalStorage;whiteSpace=wrap;html=1;backgroundOutline=1;dx=40;dy=40;fillColor=#000000;strokeColor=#FFFFFF;" vertex="1" parent="1">
          <mxGeometry x="520" y="600" width="80" height="80" as="geometry" />
        </mxCell>
        <mxCell id="17vENU-IUlTyO67-pzKh-71" value="" style="shape=internalStorage;whiteSpace=wrap;html=1;backgroundOutline=1;dx=40;dy=40;strokeColor=#FFFFFF;fillColor=#000000;" vertex="1" parent="1">
          <mxGeometry x="600" y="680" width="80" height="80" as="geometry" />
        </mxCell>
        <mxCell id="17vENU-IUlTyO67-pzKh-72" value="" style="shape=internalStorage;whiteSpace=wrap;html=1;backgroundOutline=1;dx=40;dy=40;fillColor=#000000;strokeColor=#FFFFFF;" vertex="1" parent="1">
          <mxGeometry x="600" y="600" width="80" height="80" as="geometry" />
        </mxCell>
        <mxCell id="17vENU-IUlTyO67-pzKh-73" value="" style="shape=internalStorage;whiteSpace=wrap;html=1;backgroundOutline=1;dx=40;dy=40;strokeColor=#FFFFFF;fillColor=#000000;" vertex="1" parent="1">
          <mxGeometry x="600" y="520" width="80" height="80" as="geometry" />
        </mxCell>
        <mxCell id="17vENU-IUlTyO67-pzKh-74" value="" style="shape=internalStorage;whiteSpace=wrap;html=1;backgroundOutline=1;dx=40;dy=40;fillColor=#000000;strokeColor=#FFFFFF;" vertex="1" parent="1">
          <mxGeometry x="520" y="680" width="80" height="80" as="geometry" />
        </mxCell>
        <mxCell id="17vENU-IUlTyO67-pzKh-76" value="" style="shape=internalStorage;whiteSpace=wrap;html=1;backgroundOutline=1;dx=40;dy=40;fillColor=#000000;strokeColor=#FFFFFF;" vertex="1" parent="1">
          <mxGeometry x="440" y="680" width="80" height="80" as="geometry" />
        </mxCell>
        <mxCell id="17vENU-IUlTyO67-pzKh-77" value="" style="shape=internalStorage;whiteSpace=wrap;html=1;backgroundOutline=1;dx=40;dy=40;fillColor=#000000;strokeColor=#FFFFFF;" vertex="1" parent="1">
          <mxGeometry x="360" y="600" width="80" height="80" as="geometry" />
        </mxCell>
        <mxCell id="17vENU-IUlTyO67-pzKh-78" value="" style="shape=internalStorage;whiteSpace=wrap;html=1;backgroundOutline=1;dx=40;dy=40;fillColor=#000000;strokeColor=#FFFFFF;" vertex="1" parent="1">
          <mxGeometry x="280" y="600" width="80" height="80" as="geometry" />
        </mxCell>
        <mxCell id="17vENU-IUlTyO67-pzKh-79" value="" style="shape=internalStorage;whiteSpace=wrap;html=1;backgroundOutline=1;dx=40;dy=40;strokeColor=#FFFFFF;fillColor=#000000;" vertex="1" parent="1">
          <mxGeometry x="360" y="680" width="80" height="80" as="geometry" />
        </mxCell>
        <mxCell id="17vENU-IUlTyO67-pzKh-80" value="" style="shape=internalStorage;whiteSpace=wrap;html=1;backgroundOutline=1;dx=40;dy=40;fillColor=#000000;strokeColor=#FFFFFF;" vertex="1" parent="1">
          <mxGeometry x="280" y="680" width="80" height="80" as="geometry" />
        </mxCell>
        <mxCell id="17vENU-IUlTyO67-pzKh-90" value="&lt;font color=&quot;#cc6600&quot; style=&quot;font-size: 24px;&quot;&gt;6&lt;/font&gt;" style="text;html=1;strokeColor=none;fillColor=none;align=center;verticalAlign=middle;whiteSpace=wrap;rounded=0;" vertex="1" parent="1">
          <mxGeometry x="360" y="600" width="40" height="40" as="geometry" />
        </mxCell>
        <mxCell id="17vENU-IUlTyO67-pzKh-92" value="&lt;font color=&quot;#cc6600&quot; style=&quot;font-size: 24px;&quot;&gt;6&lt;/font&gt;" style="text;html=1;strokeColor=none;fillColor=none;align=center;verticalAlign=middle;whiteSpace=wrap;rounded=0;" vertex="1" parent="1">
          <mxGeometry x="400" y="600" width="40" height="40" as="geometry" />
        </mxCell>
        <mxCell id="17vENU-IUlTyO67-pzKh-93" value="" style="shape=internalStorage;whiteSpace=wrap;html=1;backgroundOutline=1;dx=40;dy=40;fillColor=#000000;strokeColor=#FFFFFF;" vertex="1" parent="1">
          <mxGeometry x="440" y="840" width="80" height="80" as="geometry" />
        </mxCell>
        <mxCell id="17vENU-IUlTyO67-pzKh-94" value="" style="shape=internalStorage;whiteSpace=wrap;html=1;backgroundOutline=1;dx=40;dy=40;fillColor=#000000;strokeColor=#FFFFFF;" vertex="1" parent="1">
          <mxGeometry x="360" y="840" width="80" height="80" as="geometry" />
        </mxCell>
        <mxCell id="17vENU-IUlTyO67-pzKh-95" value="" style="shape=internalStorage;whiteSpace=wrap;html=1;backgroundOutline=1;dx=40;dy=40;fillColor=#000000;strokeColor=#FFFFFF;" vertex="1" parent="1">
          <mxGeometry x="280" y="840" width="80" height="80" as="geometry" />
        </mxCell>
        <mxCell id="17vENU-IUlTyO67-pzKh-96" value="" style="shape=internalStorage;whiteSpace=wrap;html=1;backgroundOutline=1;dx=40;dy=40;fillColor=#000000;strokeColor=#FFFFFF;" vertex="1" parent="1">
          <mxGeometry x="280" y="760" width="80" height="80" as="geometry" />
        </mxCell>
        <mxCell id="17vENU-IUlTyO67-pzKh-97" value="" style="shape=internalStorage;whiteSpace=wrap;html=1;backgroundOutline=1;dx=40;dy=40;fillColor=#000000;strokeColor=#FFFFFF;" vertex="1" parent="1">
          <mxGeometry x="360" y="760" width="80" height="80" as="geometry" />
        </mxCell>
        <mxCell id="17vENU-IUlTyO67-pzKh-98" value="" style="shape=internalStorage;whiteSpace=wrap;html=1;backgroundOutline=1;dx=40;dy=40;fillColor=#000000;strokeColor=#FFFFFF;" vertex="1" parent="1">
          <mxGeometry x="440" y="760" width="80" height="80" as="geometry" />
        </mxCell>
        <mxCell id="17vENU-IUlTyO67-pzKh-99" value="" style="shape=internalStorage;whiteSpace=wrap;html=1;backgroundOutline=1;dx=40;dy=40;fillColor=#000000;strokeColor=#FFFFFF;" vertex="1" parent="1">
          <mxGeometry x="520" y="760" width="80" height="80" as="geometry" />
        </mxCell>
        <mxCell id="17vENU-IUlTyO67-pzKh-100" value="" style="shape=internalStorage;whiteSpace=wrap;html=1;backgroundOutline=1;dx=40;dy=40;fillColor=#000000;strokeColor=#FFFFFF;" vertex="1" parent="1">
          <mxGeometry x="600" y="760" width="80" height="80" as="geometry" />
        </mxCell>
        <mxCell id="17vENU-IUlTyO67-pzKh-103" value="" style="shape=internalStorage;whiteSpace=wrap;html=1;backgroundOutline=1;dx=40;dy=40;fillColor=#000000;strokeColor=#FFFFFF;" vertex="1" parent="1">
          <mxGeometry x="600" y="840" width="80" height="80" as="geometry" />
        </mxCell>
        <mxCell id="17vENU-IUlTyO67-pzKh-104" value="" style="shape=internalStorage;whiteSpace=wrap;html=1;backgroundOutline=1;dx=40;dy=40;fillColor=#000000;strokeColor=#FFFFFF;" vertex="1" parent="1">
          <mxGeometry x="520" y="840" width="80" height="80" as="geometry" />
        </mxCell>
        <mxCell id="17vENU-IUlTyO67-pzKh-105" value="&lt;font color=&quot;#ffb570&quot; style=&quot;font-size: 24px;&quot;&gt;5&lt;/font&gt;" style="text;html=1;strokeColor=none;fillColor=none;align=center;verticalAlign=middle;whiteSpace=wrap;rounded=0;" vertex="1" parent="1">
          <mxGeometry x="600" y="560" width="40" height="40" as="geometry" />
        </mxCell>
        <mxCell id="17vENU-IUlTyO67-pzKh-106" value="&lt;font color=&quot;#007fff&quot; style=&quot;font-size: 24px;&quot;&gt;1&lt;/font&gt;" style="text;html=1;strokeColor=none;fillColor=none;align=center;verticalAlign=middle;whiteSpace=wrap;rounded=0;" vertex="1" parent="1">
          <mxGeometry x="600" y="840" width="40" height="40" as="geometry" />
        </mxCell>
        <mxCell id="17vENU-IUlTyO67-pzKh-107" value="&lt;font color=&quot;#ff6666&quot; style=&quot;font-size: 24px;&quot;&gt;7&lt;/font&gt;" style="text;html=1;strokeColor=none;fillColor=none;align=center;verticalAlign=middle;whiteSpace=wrap;rounded=0;" vertex="1" parent="1">
          <mxGeometry x="440" y="720" width="40" height="40" as="geometry" />
        </mxCell>
        <mxCell id="17vENU-IUlTyO67-pzKh-108" value="&lt;font color=&quot;#ff0000&quot; style=&quot;font-size: 24px;&quot;&gt;8&lt;/font&gt;" style="text;html=1;strokeColor=none;fillColor=none;align=center;verticalAlign=middle;whiteSpace=wrap;rounded=0;" vertex="1" parent="1">
          <mxGeometry x="360" y="800" width="40" height="40" as="geometry" />
        </mxCell>
        <mxCell id="17vENU-IUlTyO67-pzKh-109" value="&lt;font color=&quot;#3399ff&quot; style=&quot;font-size: 24px;&quot;&gt;2&lt;/font&gt;" style="text;html=1;strokeColor=none;fillColor=none;align=center;verticalAlign=middle;whiteSpace=wrap;rounded=0;" vertex="1" parent="1">
          <mxGeometry x="520" y="760" width="40" height="40" as="geometry" />
        </mxCell>
        <mxCell id="17vENU-IUlTyO67-pzKh-110" value="&lt;font color=&quot;#b266ff&quot; style=&quot;font-size: 24px;&quot;&gt;3&lt;/font&gt;" style="text;html=1;strokeColor=none;fillColor=none;align=center;verticalAlign=middle;whiteSpace=wrap;rounded=0;" vertex="1" parent="1">
          <mxGeometry x="280" y="520" width="40" height="40" as="geometry" />
        </mxCell>
        <mxCell id="17vENU-IUlTyO67-pzKh-111" value="&lt;font color=&quot;#b266ff&quot; style=&quot;font-size: 24px;&quot;&gt;3&lt;/font&gt;" style="text;html=1;strokeColor=none;fillColor=none;align=center;verticalAlign=middle;whiteSpace=wrap;rounded=0;" vertex="1" parent="1">
          <mxGeometry x="320" y="880" width="40" height="40" as="geometry" />
        </mxCell>
        <mxCell id="17vENU-IUlTyO67-pzKh-113" value="" style="shape=image;imageAspect=0;aspect=fixed;verticalLabelPosition=bottom;verticalAlign=top;image=https://cdn-icons-png.flaticon.com/512/196/196345.png;" vertex="1" parent="1">
          <mxGeometry x="120" y="594" width="92" height="92" as="geometry" />
        </mxCell>
        <mxCell id="17vENU-IUlTyO67-pzKh-114" value="&lt;font face=&quot;Times New Roman&quot; style=&quot;font-size: 20px;&quot;&gt;Power Ups:&lt;/font&gt;" style="text;html=1;strokeColor=none;fillColor=none;align=center;verticalAlign=middle;whiteSpace=wrap;rounded=0;" vertex="1" parent="1">
          <mxGeometry x="80" y="520" width="160" height="60" as="geometry" />
        </mxCell>
        <mxCell id="17vENU-IUlTyO67-pzKh-115" value="Reveal all mines in a 3 by 3 radius for 5 seconds, 3 uses" style="text;html=1;strokeColor=none;fillColor=none;align=center;verticalAlign=middle;whiteSpace=wrap;rounded=0;" vertex="1" parent="1">
          <mxGeometry x="80" y="690" width="160" height="30" as="geometry" />
        </mxCell>
        <mxCell id="17vENU-IUlTyO67-pzKh-116" value="" style="shape=image;imageAspect=0;aspect=fixed;verticalLabelPosition=bottom;verticalAlign=top;image=data:image/jpeg,/9j/4AAQSkZJRgABAQAAAQABAAD/2wCEAAkGBxMPEBUREhEVFRUVFRYVFhUVFxYWFxgVFRUXFhcXFxcYHSggGBonGxYVITMhJSkrLi4uFx8zODMsNygtLisBCgoKDg0OGxAQGy0mHyUtLS0tKy0tLS0tLS0tLS0tLS0tLS0tLS0tLy0tLS0tLS0tLS0tLS0tLS0tLS0tLS0tLf/AABEIAOkA2AMBIgACEQEDEQH/xAAcAAEAAgMBAQEAAAAAAAAAAAAABgcBAwUEAgj/xABDEAABAwEFBAYIAwYGAgMAAAABAAIDEQQFBhIhMUFRYQcTInGBkRQyQlJiobHBI3LRM3OSorLwFjSCwtLhQ4MVJFP/xAAbAQEAAwEBAQEAAAAAAAAAAAAABAUGAwIBB//EADgRAAIBAgIGCAQFBAMAAAAAAAABAgMEESEFEjFRYZEiQXGhscHR4TJCgfAGExQjUjNDkvEkYnL/2gAMAwEAAhEDEQA/ALxREQBERAEREAREQBEWKoDKL5c4DaaLnWm/bNH69oiB4ZwT5DVfG0tp6jCU/hTfYdNFHZMZ2Mf+UnuY4/Za/wDHFk95/wDAvDrU18yJMbC6ksVTlyZJkUdjxnYz/wCQjvY4fZe+zX7ZpfUtERPDOAfI6r6qkHsaOc7WvD4oNfRnTRfAeDsNe5fVV7OBlERAEREAREQBERAEREAREQBERAERYQGVheG870isrM8rg0bhtJPADeVXl+4ylnJbETFHyPbI5uGzuC41a0ae0nWej610+gsFvez3Jte2JbPZtHPzO9xmp8eHiofeWPJn1ETWxt4ntO/QKJkrAKgVLqctmRp7bQttSzktZ73s5bPE9NrvGWY/iSvdyJNPLYvMF0rBh+0z+pC4j3j2W+bqLv2Xo/lP7SVjOTauPnouao1J7F9/UlzvbS3Wq5pcF6IhyKw4uj2P2p3nuDQt/wDgCD/9JPNv6LorSruRFenLPe+RWqFWHL0fR+zO8d4aVzbT0fyt/ZysfydVp89V5drVXUdKembOWWvh2pojFjvGWH9nK9vIONPLYpHd2O5mUErGyN4+q79CuJb7gtMH7SFwHvDtDzbVc1eVOpTyzR2nb2t1HFqMlvXqi3bpxLZ7Vo1+V/uP7J8OPgu3VUQCpNcWMpoKNlrLHs1PbA5OO3xUuleY5TKK80DJdK3ePB7fo+stJF4LrvSK1MD4nhw3jYQeBB1BXuU1NNYozsouLwksGZREX0+BERAEREAREQBEWEBlcDEeImWJtPWkI7LPu7gExTfzbFHpQyO9Rv8AuPIKqbVaHSvMj3FxcaklRbi4/L6MdpdaL0X+o/cqfAu/23v6I3XleMlpeZJHZnHyA4NG4LyhZarGwrhOONrZpS2R5oWgasbwp7x5qBTpyqy8zS3V5RsqaxXYl95EauLCM1qo5w6uP3nDtEcm/qp1dWGbPZqFrMzvff2neG4eC7gWVZ07eEOrPeZG70pcXOTeEdy895hFlF2K4wiyiAwiyiAwuHe2GrPaKksyv99nZPjuPiu6i+SipLBnSnVnTlrQk0+DKnvzCM9lq5o62P3mjUfmb9wo8r4KiOJMHsnBfAAyTaW+y/v4HmoFa0wzhyNHYadxepcf5eq8+4gF23jJZpBJG7KR5EcCN4VoYaxFHbW09WRo7TPu3iFU9ohdG8se0tc00IO0LNmtLonh7HFrmmoIXCjXlTeezcWd/o6neQ1llLDKXrvXgXqi4OF7/bbY9aCRvrt/3DkV3QraMlJYoxNWlOlNwmsGjKIi+nMIiIAiIgC8F73gyywuledGjQbyToAOZK9yq7Hd9ekTdU0/hxEjkX7HHw2ea41qupHHrJ2j7N3VZQ6lm+z3OFedvfaJXSSGrnHwA3NHILygIArHwbhpscRlmYC+RtA1w9VhGynE71WU6cqsvM2N3d07GinhwSRW6k+EcTmynqpCTET35Cd45cl8Ysw0bI4yR1MRPi0n2Ty3AqOJ06U+J9/Yv6G+L5p+TX3kXpFKHNDmkEEVBGoI5Laqswjic2ZwikNYj5sOmo+HiFZ0UgcA5pBBFQRsIKtKVZVFijF31jUtKmrLNdT3+5tREXUhhERAEREAXPvG847O6JsjsvXSdW0nZnLSQDwrSneQvBiPE0d3ZHTRydW806xjczWu4OANRXdoq+6SsU2e3wQNs0hc4S1Iyua4dmjTqOJQFvrRZbSyVueNwc0kgOGoNCQaHfqCqPvnH1slsgsxBjLAWTyiuZ5FQAfc0BrvJBVvYTs7YbDZ4gR2YWA0I25QT8yUBoxPhxlsZmADZWjsu4/C7l9FVVos7o3Fj2lrmmhB3FXsohjnD/Xs6+MfiMHaA9tn6jd4qHc0NZay2l7ofSToyVGo+i9nB+j7tu8r+67e+zStljNC0+BG9p5FXBdN4stULZWHRw1G8EbQeYKpUhSfAl9dRN1Tj+HKQO5+xp8dB5KPa1tSWq9hbaasPzqf5sV0o969tpaSLAWVaGMCIiAIiIDiYrvP0WzOeD2j2GfmNdfDU+CqIlSzpGvDrJ2wg9mNtT+d/wCgA81Eyqq6nrTw3G10LbflWyk9ss/p1d3iSDBVzelWgOcKxx0c7gXey35V8Fa9FxMJXb6NZWNI7Tu2/vdu8BQeC7inW9PUgt5m9KXf6i4bXwrJdnuaZ4WvaWuALSKEHUEHcqxxbhh1ld1kYrCfNh4HlwP9m0ytM0TXtLXAEEUIOoIK9VaSqRwfM52N9UtKmtHNPat/uUapNhDExspEUhJiJ7ywnePh4jxXxizDJsjusjqYidu0tJ2NceHAqOqr6dGfE2bVC/ob4vmn5NfeReUMoeA5pBBFQRsIW1VbhHFBspEUpJiPm08Ry5KzoZA8BzSCCKgjUEHeCrSjWVRYoxd7Y1LSpqyzT2Pf77zaiIupDCIiA4OLrxssFmeLYR1bxlyHVzzwY3aTz3bVUuALvgtFsLZGR9SXdjrZA2YOBrGGBvrnYDpT6GW9LNns0bGPMAktU7skZLpDlApVwaHU3tAGyrlAJbqnsFuiijo+0tEbw1rc2WV7SQ2h9YtBBrs0rsQFpdI1zwGyPk6lxIeZi2EtYXPy5DI+urgBtpUqEdHWCWW//wCxLIOqa6nVMcc5cPfI9RvzPJc20R2ue2We77W9zXxyOjz1q8NmLXONa9saaHgaKcXDgS13baBNZrSx7dj43tc0PZwJFQCNoP8A2gLCstmZExsbGhrWijWjYAtxCNQoCqMa3N6NOXNFI5KubTYHe03z18VHwrcxbdvpNle0DtN7bPzN3eIqPFVGQqm6p6k8tjNvoa7/AD7dKXxRyfZ1MtzCl5+lWZriaub2H/mG/wAdq7irTo4t/VzuhJ7Mraj87P1BPkFZasKFTXgmZfSVt+nuZQWx5rsfpsCIi7EAL4e6gJO7Vfa5mIrR1VkmfvEbqd5FB8yvjeCxPUI68lFdbwKjvW1ddNJJ7z3Hwrp8l6cM2Hr7XFHuzZj+VvaP0p4rmUUw6NLPmmkk9xmUd7iK/JvzVPRWvUXF+5vr6f6e0m49SwXgiyKLKwsq5Pz8IiIDTPE17S1wBaRQg7CCqwxbhl1lcZI6mEnTiwnceXA+HfOcSYls93szTv1PqRt1e/uHDmdFVGJOkm1WoOZEGwxGoIo17yOBc4UHgPFcqtFVFg9pNsb6dpU1lmntW/3NSkuEcTmzOEUhrEfNhO8fDxCr2GCaVufq5CBtdldlNfi2L5ewt2ghVeM6M+PibNqhf0N8XzT8mvvLb+kopA8BzSCCKgjYQuBiDGtjsEgimkJftLWNLy0He6mxU5YMRWyzCkFpkaB7BOdh7muqB4UXAmmc9xe9xc5xJc5xqSTtJO8q0o1VUWK5GMvrGpaVNWWaex7/AH4H6Xum84rXEJoHh7HbCOO8EHUHkV4cR4os13NBnfRxFWxtGZ7qcBw5kgKksI4olu2bOyro3ftIidHDiODhx81NsBXOL0nlvO2NElZC2Jju00Zd5HBtQADvBK6kIzh+Ca+rxbeE0Rjs0I/Ba72iNWgcde0SNNABVTyw3HFDaJrUG5ppjVz3bQ0NDWsbwbRo711Gimg2L7QEfvnDbLRarNaxRskD9T78dD2T3E1HjxUgREAREQGFTWJbF6Pa5Wbs2Yfld2h9fkrlVc9JdmyzRye+wtPe06fJ3yUS8hjDHcXWgaurcuHVJPuz8MSL3XaupmjkHsvBPdXX5VV2MfUA8RVUSrmw9aOtssL95jbXvAofmFyspbY/Um/iKllCp2rzR0giyisDMBRzHklLC/m5g/mB+ykajHSF/kj+8Z91zrPCnLsJdhFSuaaf8l4lXKwujKP8GV3F4Hk3/tV4rK6Nv8s/94f6Qq60X7hqtOP/AIj7US5ZWAsq1MUFGsa4pZd0GegdK+oiZxI2ud8I0r5KQyPDQXE0ABJPIalfnfE96vvO3Oe0F2ZwihYPdrRgHCpNfFAfNjstqve1kVMsr+097tGsbXafdaNgAU0dZbsuQASj0u1gAluhDTt0B0jHfVy+76tzbgsbLHZyDaphmllHs7s3ftDRwBPfV7nEkkmpJJJO0k7STvK+gmd6dJlrmBYyOCKMimTJ1hpwJdp5NCjPpZl9Y6heFYC41qKqLAnWF9O0qa0c09q3+571qmirqNqzDJXvWxVfToz4+Js2qF/Q3xfNPyaPACu/hDFMt2zZ2dqNxHWRbnDiODxuPgeXKmizaj1vqtlz3TNbJmwwtzPdx9Vo3ucdzQrWlWVRYoxd9YztKmrLY9j6n7n6Quy3MtMLJozVkjQ5p5HjzXrXNw9dgsdmis4dm6toaXbKnaTTdqSukuhCCIiAIiIAoV0mx/gxO4PI82/9KaqIdJX+WZ+8H9JXG4/pSJ+i3heU+0rZWrgOSthZyLx/MVVKtLo9/wAkP3j/ALKFZ/1PoaPT6xtU/wDsvBknREVmY0KOY9ZWwv5OYf5h+qka5eJLP1tknZvMbiO8Co+YXiosYPsO9rPUrwlua8Sm1YfRlJ+DK3g8HzaP0Vd71MejK0Umlj95gcP9JAPycFV2rwqI2WmqetZzw6sHyZY6ysLKtzDEV6TLwNnuyctNHPyxD/2ODXfylyrnoju1sttMzvVs8ZeK7A53ZB8BmUw6Z3H0Bg3GdtfBjyFDsA3xBZbJbxJIGSPipGDtd2HijeJzEICMYgvV1ttMtocfXcS3kwaMH8NFz1hooFlfQEREBgr1xS5vzfVeVYC41qMascGTrC/naTxWae1b/c9y72B70Fkt8crjRrqxyb6tcNDTkQFHopc3et8Hrt/MPqqvp0Z8TaNUL+hvi+afk0fpGGQOAc0ggioI1BB3grcqtwlig2ZwilNYidDvYeI+HkrNikDwHNIIIqCNhBVpSqqpHFGJvbKpaT1ZbOp7/vcbURF1IYREQBQrpMkpFE3i8nyaf1U0VcdJc9Zo4/dZmP8ArJA/pKj3LwpMstEQ1ryHDF8kQ9WrgJlLCzm55/mP6Kqd6uXDln6qyQM3iNte8ip+ZUWyXTb4F5+IZYUIrfLwXudNECKyMiZXw9tQQd+i+1goCkLys3UzSR+49w8AdPlRezC9t6i1xP2DNld3PGU/UHwXW6RLBktAlA7Mjf5m6H5U8ioqFTTX5dTsZ+gUJq7tU380cH4MvcLK4uFby9JsrHn1mjI/8zdPmKHxXaVxGSksUYKpTlTm4S2p4ciF9LVlMl2PcBXq3xyeAeGu+TifBUWv09eNkbPC+F4q2RjmO7nChX5svW732WeSB/rRuLTzpsPiKHxX08HkREX0BERAFhZRAYC6N2u6x7R7QNTzAXPVm9D1wCQTWqRoLCDCwEaHYZDzGxvgVxrUY1FgydY387Spis09q3+5wlJsI4oNmIilJMROh25Cd4+HktWK8MmyOzsq6Fx0O0tJ9l32Kjqq+nSnx8TZNUL+hvi+afk195bb0ilD2hzTUEVBGwhbVVuEcUGzERSmsROh2lp4j4eSs2OQOAIIIIqCNQQd4VpSqqosUYu9sqlrU1ZZrqe/73G1ERdSGfKp3E9t6+1yv3Zso7mdkfQ+asrFV5+jWV7x6x7DPzOr9BU+CqEqBez2RNN+Hrd9Ks+xeL8j0XXZuumjjHtPaPAnX5VV2xsoABsAoq06O7B1loMpGkTf53aD5ZvMKzl7s4YQb3+RG0/WU66pr5V3sIiKYUQREQHCxddnpVlc0Cr2dtneN3iKhVIRRXuqqxtcvo0xe0UjkJcOAdtc37qBeUtk0aTQF5g3by684+a8z6wNfHo02RxpHJRp4Bx9U/ZWnVUOCrNwTiD0mPqpD+Kwb/bbszcyN/glpW+R/Q9adsXj+ogv/Xk/JkrVfdJ+Dza2+lQNrMxtHtG2SMbKcXDdxGnBWChU8zJ+WEV0Y06O47YTPZi2KY6uB0jkPE09V3MeKqW9rmtFjcWWiF8Z4kVaebXjsuHivoPCiIgCLLRU0Gp4Db5KYYX6O7VbCHytNni954o9w+Fh1He6nigOLhXD0t42gRRgho1kk3MbvPfwHHkv0LdthZZoWQxtysjaGtHIffetFxXLDYYRDAzK0bTtc473OO8rpr4DTaIWyNLHAOa4UIOwgqr8WYadZHdYypicdDvYT7LuXA/2bVK0zQNkaWPAc1woQdQQVxrUVUjg9pOsb6dpU1o5p7Vv9yjlJ8IYoNmIilJMR2Hew8R8PJacWYadZHZ2AuhcdDtLT7rvsVHlWdOjPibJqhf0N8XzT8mvvIvOKQOAcCCCKgjYQVsqqvwjig2YiKUkxE6HaY67x8PLcpHjHEYhiEcTwZJBoQa5WH2q8TuVlG4g4a24yNbRdenXVFLHHY+rDfww6yMY4vn0mfI01ZFVo4F3tH7eajgWCpJgi5fSZg9w/DjIceBdta37qt6VWfFmv/asbbhFc/8AbJxhG7PRbK1pFHu7b+87vAUC7qwsq3jFRSiuowVWrKrNzltbxCIi9HMIiIAudfV2NtcLon79h3tcNhC6KwvjSawZ6jJxkpReaKQvCxvs8ro5BRzTrzG4jkVrslpdE8SMdlc01BVpYrw8LZHVtBK0dk8fhceH0VV2iF0bix7S1zTQg7QVU1qTpS4dRuNH30Lyl0vi+ZefY/YtnDWIGW2Pc2Ro7bPu3iF3FRlltT4XiRji1zTUEf3qFZWGsWx2kCOWjJefqv8AynjyUyhcqXRlt8Sg0loiVBupSWMN3WvbjzJUtU0LXjK9ocDucAR5FbKpVSykI3bcCXfMausrAeLKs/pIXlZ0bXaDX0cnvkkI8i5S9EBy7tw/ZbN+xs8bDxDRXz2rqIiAIiIAiIgNFohbI0sc0Oa4UIOwgqrsWYadZHZ2VdC46He0n2XfYq16qI4sxPDEx0TQJXuBBG1jQfe4nl9FHuIQlDpZcSz0VXr06yVJa2O1cN/DtK2QlF9WeB0jgxjS5zjQNG0lVJuW0s2brusT55WxMFXOOnIbyeQVv3LdbbLC2Jm7Une5x2krnYUw8LHHV1DK4do8PhB4fVSFWltR1Fi9pi9LaR/Uz1IfAu97/TmFlEUopwiIgCIiAIiIAo5ifDTLYMw7MrRo7cfhdxHPcpGsUXmUVJYM6Ua06M1Om8Gij7dYpIHmORpa4bjvHEHeOa0BXPfF0RWtmSVteDho5p4gquL9wjNZauaOtj95o7QHxN+4VZVtpQzjmjYWGmKVfCNToy7n2enebrixlLBRkn4sfP129zt/j5qd3XiCz2odiQV9x2jvI7fBU9RYqlO6nDLaervQtCvnHoy4bOX+i+EVP3fii1QaCUuHB/aHz1XesvSG8ftIWu5tcW/Ig/VS43dN7ciiraCuoPo4SXB4dzwLDRQ6LpBgPrRyt/hP0K3/AOPLLwl/gH/JdFcU/wCREejLtf23yJUsKHydIEA9WKV3gwfVy5tq6Qnn9nA1vNzi75AD6r47mkus9w0TeS+TDtaXiywlyb0xBZ7L68gze43V3kNniq1vDE9qn0dKWjgzsj5a/Nceqjzvf4otLf8ADzxxrS+i9ST37jOWerI/wo+Xrnvdu8PNRhZAUguLCU9qIc4dVH7zh2iPhb9youM6st7++RdpW1jS6ox736nFsFifPII42lzjuG4cTwHNWfhjDTLGMzu1KRq7c0cGjcPqujdF0RWRmSJtOLjq4niSuip9C2UM3tMvpHS87noQyh3vt9AFlEUopwiIgCIiAIiIAiIgCIiAwUosogI/e+E7Paauy9W8+0zSveNhUOvLBFojqY6St5Ua7yJ18CrRRcKlvCe1FhbaUubfKMsVuea9VzKMtNkfEaSMcw/E0j6rVRXnLC14o5oI4EArmWjDVlk9aBneBlPyUaVk+plzS/EUP7lPk/X1KfRWhJgeyHYHt7n/AKgrX/gKycZf4h/xXJ2dTgSo6etGs8V9PcrNAFaDMD2QbQ93e/8AQBdCz4assfqwM7yMx+a9KzqdZ4l+ILdfDGT5LzKks1jfKaMY55+FpP0UhuzBFokoZKRN5kOd5A6eas2KFrBRrQBwAAW1d4WUFnJ4lbX0/WllTio8dr8l3EfunClns1HZesePafrTuGwLvhZRSoxUVgkUtWtUqy1qkm3xMLKIvRzCIiAIiIAiIgCIiAIiIAiIgCLyutjRK2Kvac1zhwowtB149sL7ntDY25nuAFQK8yQ0fMgIDei0RWlj82VwOV2V3J1K0+YW3OEBlZWiK0sfXK4HK4tPJw2hfNqtbYsub2ntYKa9p5oK8qoD0ovnMmcID6WEBXmttsZAzO+tKgdlrnuJOwBrAXOPcEB6kXO/+XizZavBy5yTFKGtbQn8RxbljNBscQV53YhgDC+shaCQ7LBO4toA6r2tYSwZSCC6gINQgOyi8TLwjc4tD9WsbI7QgNY6tC4kUbUAmh10Wh1+QDJWSnWAObVrwMrjRrnGnYBOgLqV3IDqIuXFflnc17hKKRjM4kOHZ1Ac2o7bSQQC2oJ0C6DDUV466gj5HUIDYiIgCIiAIiIAiIgCIiAL4kFQRxBX2iAhzMKPMeRzYQGxzMjaKuyOeIwxxeWAuIyOOYioqNp1XzPhiZ7cjuoc1nWFmYuOd0k7J+2Cwhg7JbUZtteSmSICHW3Crn5sscAaZesyNe6MPDoiwhzmx1GQklpoa1PqnVbrThklshY2IyOmEjXvLuyBE2MZqtPWUIccp0NdoOqlaICI2rDTznyx2ZwdLK/K6rQ/rW0zPAYaOYSaba1OrV8uwrKWGIvZq+NxtILhaHBpYSD2dKZTTtGtd20y8rIQEftV1SvhhYY4D1JaTGS4RSUY5pBGQ5QCQ4aO1HiufLhaR79epAzFznDNmla57HdW8ZdGtDSBq6unq61l4/vzWQgI/clw+jSl4yAO64ENqCQ+0OkiGzY2MhvKlBovXb7urA2JjGyZSCBLLI3ZXXrGhzq68F1UQEZiuadjoyHRlzGjPKXyB0xbGWiN8dCMtSDmqTQbK6r7s11TvjyTiMGSVr53Mkc/rGtHqgGNuVpLWNy69gHUk1UkWEBELXhiV7pe0zLI57n1fJ+OHuaRHK2lGNDW5MzcxIpoNhHDU7mSxmRmW0gNkq57jCwOJDYnObWTRxFXZaHXkpesICIz4dnkEefqnCFrGNjzyMbK2Mkh73htY3A5HAAOALduukkuuB0ULI3vzua0Au11Pjr5r1oEBlERAEREAREQH//Z;" vertex="1" parent="1">
          <mxGeometry x="113.62" y="727" width="104.76" height="113" as="geometry" />
        </mxCell>
        <mxCell id="17vENU-IUlTyO67-pzKh-117" value="Activates a super sweeper which instantly clears all mines in a 3 by 3 radius. One use." style="text;html=1;strokeColor=none;fillColor=none;align=center;verticalAlign=middle;whiteSpace=wrap;rounded=0;" vertex="1" parent="1">
          <mxGeometry x="80" y="860" width="160" height="30" as="geometry" />
        </mxCell>
        <mxCell id="17vENU-IUlTyO67-pzKh-118" value="" style="shape=image;imageAspect=0;aspect=fixed;verticalLabelPosition=bottom;verticalAlign=top;image=data:image/png,iVBORw0KGgoAAAANSUhEUgAAANgAAADpCAMAAABx2AnXAAAAw1BMVEX///8AAAAREiTa2tv39/eZmZkeHh7X19eRkZEODyIAABcAABr19fWenp77+/uUlJTu7u7m5ua5ubmFhYUAABNoaGjPz89bW1tLS0vExMRtbW0iIiIvLy+srKwAABzg4OB1dXVBQUGUlJqnp6cXFxfJycl9fX2ysrIMDAwoKCg8PDxBQUxtbnYnKDZfX19TU1OAgIZZWmN7e4IAAAs0NDQ6PEcZGyo0M0AjJTNiY2upqa9xcXiXl55NUFk/QU8JCySNjJbpCMCSAAAIsUlEQVR4nO2ci1aqQBSGATNExFAJtZIUNTOgkI4YKcX7P9XBy3ARUChutvbnahXpDPt3ZvZs5oZhAAAAAAAAAAAAAAAAAAAAAAAAAAAAAAAAAAAAAABE8TgcjWqNoq1InUYH3zEr2pB0uWJwRI8v2pj0aI7vcQ+3j0UblA7sDX7MX5DG3wVkben2m0Vb9hsqNy+hsrY83FxqsZE3D5Gq9vwbt4o2MiFshQmvgQHmnX7ZxM26vddOm3/0dbnNFtln7nrP4QXUH4f+f3THTB8DPXeLb3e6vdvcO4dXZNbz9XzU676+vr6N/t2HK9oztlOxkQX5fD96faox4/GYuenc9R4m6I1qvrqqZyvZkd03thfcVjryLWFKPN8yS2bbNdPYBVW7pNOE0u7y1NVMYtlL2y6t5raMD6nJ17NpPNznKewqtlnzTsX+PFvbXTjp2bNdgct1CYW9dPhtgEE+Ha69WfBP8wsVdjfY9VBXg5HzL38mzUq1V1ph3Xat++KL3fHn+eiW6bO7z7GzrvetkJz4wXDkT28z+dettlFlLUYYubtqVUi+357N2n2efGQPn2H52rH/i8qtRU5nTK3Teep0qoP+IYtqwcLYkDCd5WfDUUhnnegeRQuzH/lfbjtVZjybzQZjpvrUjXYKie5RtLBapAwQFg4ISxMQBsKCgLA0AWEgLAgISxMQBsKCgLA0AWEgLAgISxMQBsKCgLA0AWEgLAgISxMQBsKCgLA0cZZD5CAs1+UQzgIWEgsus0xJGMr4JSMJ4SBTpxgTIeLXwlBVeMtIQjjI1Bk2y0rYYdk3PsxEQBRorQKD9bMSNjwkqmUkIZyuc9fHrIShtRRMRhLCQfXkCWtlJQwta8l3CwJyGW9Y4zojYSgRmZGEcNqHu04wLM56qB8IY1Ei9vxnU8SpgFfYbTbCkFOaXGWlIZQGspVPsoo2yR3Qwuh8uzGsOTrcd4BNsxGGKsJTVhIiQL3MMIlbTHIDtIx7kJGAKFBNuXY761SFOV9Xvk4Rw0h04xb2FK7id8KQ77jO1ylibvfVThBUJcgffVs5+w7MjXiGCdaqJ8gebWPKeaME5sYeD02sGyXk58KcCDT/jY8VdGsSG6QvjEmeJDXQmt+OG/2kJwzFabnu/ziAAvx7z9aktIQ5zr6doYAoeHTzaWy/GDtvJ0zLN1A8gFZr37rPTmkJQ9V8mJnxp3AG3ti4Q1Vxc3ZqQD9L+yNxXHLVDfbTEYb6j3lBe4pRH31/5XiSVIQ5PUm+4zgu6DEan8UM8WPmi54c8MI23CIDHrB4kXC8XJ0v6TVb60/gxAeDeJ10vFydnbfFnSPR8JgcxzHGytTxSb2MrT+F4/GrsTbaxsrTCWOK8fV73ArYihN+xMnSyabIAvMU2R0WYxwuRoZNZ6Bhmrnxp3B3oU5j+I8YGTpNtdgCwzzPYp5+7efC3CmOwk/7+IcsGXoc9Y+FOQeb5D2cGMR5erG9WPPMnu2zmTlN9jnvwakQnADIjvLPTJady8p1rHkPk4bRcPYFj841szM5ud4n/0G3MNzvuXPmoI8zGY08ZV8KXJ8x9tbMpMLclGWoiFuu3NH7/sl++mQubrB5m5Pd5yFd2yvu82cyYW6HeF2iI/08q1haJyZvT+Tg8Tp5z6+cxG1mzy0scsw7Or0ngh7nZ3UMnBlOHJ+0IttZZHKPruJDDj+se8rFtszCfWNUYk89LEcP5sUbdJBY+NqxiKSeSY2iBtxO4Z1k74fHIOEJPX36pCQ9sx+vFNsDPAaX7IQm845vFf6sEo53hd/WBwSeYkLSsKPy6/I1FnzEYoEZwWAKfuJ5u1QdmB9vmU3shtYanRbmczGVAgyOjc9l2MG+3/SjD7Pe4Ou5bAdIHuFbgPRiV67Wa5SwtveAp4dS+kMvFd95VNv5kvYkTFjDF530ShT4RtHwtav5dgC+GhTmXyM9LMbUpPjjqTu78bAdvzDS/wCQ77LfX3AUT+2O+ey4wtijSLLYMd9EkEcHv+0OZq3thTWOZj97pXcbXhpHDy73gysM265tYI/3whQ1HftjjndQzLcHtLaO56onF3hIfCswQtAJPH8OS/iUEoNzi8fmF+Q1/LROTpnVCllPlBJ85GKkt5LHhmdhJmGyXoqcYE6JRnCz43VZxrB/CXu0uoW55Mblh3X7r/nFBIbxYKu7sZ2X2WX2XKe4atduLjDOAAAAAAAAAAAAAAAAAAAAAAAAAAAAAAAAAAAAAMpI5Y8S5zipiwQj/igg7NI4CKMOP4TnN0HQAkG5V/ZfFO1elpy9MGpJEZSi7/9eoffqiwWnLJEU3aSoj8XqUpTthQmGQdetOlcn6hxu6TTH0TSHDz4/P9cMzuE4ReP4isfxpfVVUmEBsw4lplucrmqiimviWt2sRFGTNmbFxHGZXYgkr0iVitmXSOUr1xKjKNq2mLKbg/2iif3v7SVBof9vEahtXdMpnRLcpnJoY5xIyPK6vpYNHFcFkcDX68W7xD+qsqjwuPHZX+JKi6RpKlddpql967SuS3WFphaqtBSUuq6rthSlrgi6rnPyQpRUzTKUjSmLxka1zM0H5RVGGwtrIRqyJtGc9c281w3VFN5xoaKJZhtftqfvnNLiP/Kth9SHpmqfC0uaGWvj07QkRlvL6ld/8a4uNFmzGFXScGtlarJV36zMxcfaEg1NFrzCqO9PTbcoRdnYDsKQF4S4MIXNWpx+VZTKuq+JbU2aSpX3XIXZ9UhW5a0g1VA3S1kULcNSpZmsiKa1LYiFtbSMr41iiKahqpxFrD5Xslr3CiME+UNQOhqtWGvOwA3rY7WiTFGtc7ZA0eDe7Sop4+tl3kVG0BK1UhThi1YIiVO+l+8r5UNZCRInCbqiS8TSlExzpVAS/UEp9EqnvmjCJ4wQ7JZYp3c/NCHUty1T4OoUYTcrzi5cmrNbb+692N5N7J0GelHO9e4P2n65H6Ac9/jXI4+/Bwi7NP4DG+rBNKdkVZUAAAAASUVORK5CYII=;" vertex="1" parent="1">
          <mxGeometry x="116.52" y="910" width="95.48" height="103" as="geometry" />
        </mxCell>
        <mxCell id="17vENU-IUlTyO67-pzKh-119" value="Use when making risky decisions! If you hit a bomb, the shield will protect you from losing, if there is no bomb, you retain the shield." style="text;html=1;strokeColor=none;fillColor=none;align=center;verticalAlign=middle;whiteSpace=wrap;rounded=0;" vertex="1" parent="1">
          <mxGeometry x="80" y="1040" width="160" height="30" as="geometry" />
        </mxCell>
      </root>
    </mxGraphModel>
  </diagram>
</mxfile>
